<?xml version="1.0" encoding="UTF-8"?>
<svg width="27px" height="24px" viewBox="0 0 27 24" version="1.1" xmlns="http://www.w3.org/2000/svg" xmlns:xlink="http://www.w3.org/1999/xlink">
    <!-- Generator: Sketch 46.2 (44496) - http://www.bohemiancoding.com/sketch -->
    <title>np_medical_1146352_000000</title>
    <desc>Created with Sketch.</desc>
    <defs></defs>
    <g id="Symbols" stroke="none" stroke-width="1" fill="none" fill-rule="evenodd">
        <g id="3.-Components-/-Navigation-/-Admin" transform="translate(-1170.000000, -22.000000)" fill-rule="nonzero" fill="#FFFFFF">
            <g id="Main-Navigation" transform="translate(950.000000, 16.000000)">
                <g id="Nav-Notes-Copy" transform="translate(201.000000, 6.000000)">
                    <g id="np_medical_1146352_000000" transform="translate(19.000000, 0.000000)">
                        <path d="M26.127,4.5 L18.375,4.5 L18.375,0.8290875 C18.375,0.62986875 18.2958975,0.439425 18.1552725,0.2988 C18.0146475,0.158175 17.8242188,0.0790725 17.624985,0.0790725 L9.374985,0.0790725 C8.9604225,0.0790725 8.624985,0.41452125 8.624985,0.8290725 L8.624985,4.499985 L0.872985,4.499985 C0.459885,4.499985 0.122985,4.83543375 0.122985,5.249985 L0.122985,23.17086 C0.122985,23.3700787 0.2020875,23.5605225 0.3427125,23.7011475 C0.4833375,23.8417725 0.6752325,23.920875 0.873,23.920875 L26.127,23.920875 C26.3247525,23.920875 26.5166625,23.8417725 26.6572875,23.7011475 C26.7979125,23.5605225 26.877015,23.3700937 26.877015,23.17086 L26.877015,5.249985 C26.877015,5.05076625 26.7979125,4.8603225 26.6572875,4.7196975 C26.5166625,4.5790725 26.3247675,4.49997 26.127,4.49997 L26.127,4.5 Z M10.125,1.5790875 L16.875,1.5790875 L16.875,4.5 L10.125,4.5 L10.125,1.5790875 Z M25.377,22.4208375 L1.623,22.4208375 L1.623,5.9999625 L25.377,5.9999625 L25.377,22.4208375 Z" id="Shape"></path>
                        <polygon id="Shape" points="14.25 10.170375 12.75 10.170375 12.75 13.45455 9.4643625 13.45455 9.4643625 14.95455 12.75 14.95455 12.75 18.2401875 14.25 18.2401875 14.25 14.95455 17.5356375 14.95455 17.5356375 13.45455 14.25 13.45455"></polygon>
                    </g>
                </g>
            </g>
        </g>
    </g>
</svg>
