<?xml version="1.0" encoding="UTF-8"?>
<svg width="12px" height="10px" viewBox="0 0 12 10" version="1.1" xmlns="http://www.w3.org/2000/svg" xmlns:xlink="http://www.w3.org/1999/xlink">
    <!-- Generator: Sketch 48.2 (47327) - http://www.bohemiancoding.com/sketch -->
    <title>np_back_1203410_000000</title>
    <desc>Created with Sketch.</desc>
    <defs></defs>
    <g id="2.-Elements-/-Back" stroke="none" stroke-width="1" fill="none" fill-rule="evenodd" transform="translate(0.000000, -3.000000)">
        <g id="3.-Elements-/-Back-to-profile" fill="#002B32" fill-rule="nonzero">
            <g id="np_back_1203410_000000" transform="translate(0.000000, 3.000000)">
                <path d="M2.9637551,6.0995 C2.76764571,5.899305 2.84130612,5.7499 3.11107592,5.7499 L11.3888718,5.7499 C11.6586514,5.7499 11.8786678,5.52529 11.8786678,5.2499 L11.8786678,4.7499 C11.8786678,4.4745 11.6586416,4.2499 11.3888718,4.2499 L3.11009633,4.2499 C2.84031673,4.2499 2.76763102,4.09951 2.96277551,3.9003 L6.44008163,0.35055 C6.63619102,0.150355 6.56253061,0.00095 6.29276082,0.00095 L5.19072,0.00095 C4.92094041,0.00095 4.55359347,0.15134 4.35845878,0.35055 L0.147438367,4.6503 C-0.0486710204,4.850495 -0.0486710204,5.1503 0.147438367,5.3505 L4.35943837,9.65025 C4.55554776,9.850445 4.92289959,9.99985 5.19169959,9.99985 L6.29374041,9.99985 C6.56352,9.99985 6.63620571,9.84946 6.44106122,9.65025 L2.9637551,6.0995 Z" id="Shape"></path>
            </g>
        </g>
    </g>
</svg>