<?xml version="1.0" encoding="UTF-8"?>
<svg width="19px" height="17px" viewBox="0 0 19 17" version="1.1" xmlns="http://www.w3.org/2000/svg" xmlns:xlink="http://www.w3.org/1999/xlink">
    <!-- Generator: Sketch 47.1 (45422) - http://www.bohemiancoding.com/sketch -->
    <title>icons/dark/calendar</title>
    <desc>Created with Sketch.</desc>
    <defs></defs>
    <g id="Symbols" stroke="none" stroke-width="1" fill="none" fill-rule="evenodd">
        <g id="3.-Components-/-Patient-/-Normal" transform="translate(-423.000000, -73.000000)" fill="#002B32">
            <g id="Current-Phase" transform="translate(423.000000, 25.000000)">
                <g id="Phase-Appointments" transform="translate(0.000000, 41.000000)">
                    <g id="1.-Icons-/-calendar-/-dark" transform="translate(0.000000, 7.000000)">
                        <g id="np_calendar_938983_000000">
                            <path d="M16.5717174,1.1696 L14.5694272,1.1696 L14.5694272,0.62428 C14.5694272,0.29068 14.2878761,0.01804 13.9434185,0.01804 C13.5989609,0.01804 13.3174098,0.2907 13.3174098,0.62428 L13.3174098,1.1696 L10.1260293,1.1696 L10.1260293,0.62428 C10.1260293,0.29068 9.84447826,0.01804 9.50002065,0.01804 C9.15556304,0.01804 8.87401196,0.2907 8.87401196,0.62428 L8.87401196,1.1696 L5.68263152,1.1696 L5.68263152,0.62428 C5.68263152,0.29068 5.40108043,0.01804 5.05662283,0.01804 C4.71216522,0.01804 4.43061413,0.2907 4.43061413,0.62428 L4.43061413,1.1696 L2.42832391,1.1696 C1.14563804,1.1696 0.0816173913,2.20006 0.0816173913,3.4422 L0.0816173913,14.7148 C0.0816173913,15.95698 1.14567935,16.9874 2.42832391,16.9874 L16.5717587,16.9874 C17.8544446,16.9874 18.9184652,15.95694 18.9184652,14.7148 L18.9184652,3.4422 C18.9184652,2.20002 17.8544033,1.1696 16.5717587,1.1696 L16.5717174,1.1696 Z M17.6672533,14.715 C17.6672533,15.29078 17.1662728,15.77594 16.5717174,15.77594 L2.42828261,15.77594 C1.83372717,15.77594 1.33274674,15.29078 1.33274674,14.715 L1.33274674,7.2002 L17.6665511,7.2002 L17.6672533,14.715 Z M17.6672533,5.9876 L1.33262283,5.9876 L1.33262283,3.4422 C1.33262283,2.86642 1.83360326,2.38126 2.4281587,2.38126 L4.43044891,2.38126 L4.43044891,2.92658 C4.43044891,3.26018 4.712,3.53282 5.05645761,3.53282 C5.40091522,3.53282 5.6824663,3.26016 5.6824663,2.92658 L5.6824663,2.38126 L8.87384674,2.3820412 L8.87384674,2.9273612 C8.87384674,3.2609612 9.15539783,3.5336012 9.49985543,3.5336012 C9.84431304,3.5336012 10.1258641,3.2609412 10.1258641,2.9273612 L10.1258641,2.3820412 L13.3172446,2.3820412 L13.3172446,2.9273612 C13.3172446,3.2609612 13.5987957,3.5336012 13.9432533,3.5336012 C14.2877109,3.5336012 14.569262,3.2609412 14.569262,2.9273612 L14.569262,2.3820412 L16.5715522,2.3820412 C17.1661076,2.3820412 17.667088,2.8672012 17.667088,3.4429812 L17.6672533,5.9876 Z" id="Shape" fill-rule="nonzero"></path>
                        </g>
                    </g>
                </g>
            </g>
        </g>
    </g>
</svg>