<?xml version="1.0" encoding="UTF-8"?>
<svg width="16px" height="12px" viewBox="0 0 16 12" version="1.1" xmlns="http://www.w3.org/2000/svg" xmlns:xlink="http://www.w3.org/1999/xlink">
    <!-- Generator: Sketch 47.1 (45422) - http://www.bohemiancoding.com/sketch -->
    <title>1. Icons / _misc / checkmark / accent</title>
    <desc>Created with Sketch.</desc>
    <defs></defs>
    <g id="Web" stroke="none" stroke-width="1" fill="none" fill-rule="evenodd">
        <g id="2-1-3-Patient-Details-Edit-Goal" transform="translate(-793.000000, -384.000000)" fill="#009DB9">
            <g id="Content" transform="translate(190.000000, 112.000000)">
                <g id="Group" transform="translate(0.000000, 177.000000)">
                    <g id="Group-2" transform="translate(360.000000, 0.000000)">
                        <g id="Stacked-Group" transform="translate(24.000000, 65.000000)">
                            <g id="Goal" transform="translate(160.000000, 0.000000)">
                                <g id="Group-6" transform="translate(0.000000, 19.000000)">
                                    <g id="Edit-goal" transform="translate(55.000000, 5.000000)">
                                        <g id="1.-Icons-/-_misc-/-checkmark-/-accent">
                                            <g id="np_checkmark_942794_000000" transform="translate(4.000000, 6.000000)">
                                                <path d="M15.78064,1.04774026 L14.703136,0.0998961039 C14.54064,-0.0425548052 14.290016,-0.0303802597 14.143136,0.12789974 L5.948736,8.96535429 L1.693696,5.22260104 C1.5312,5.08015013 1.280576,5.09232468 1.133072,5.25060468 L0.159952,6.30012156 C0.0893264,6.37621714 0.0530768,6.47605403 0.0580768,6.57894234 C0.06370192,6.68121506 0.110576,6.77739429 0.1887024,6.8461839 L5.8067824,11.7881579 C5.8605328,11.8356421 5.928032,11.8654706 5.9992784,11.8776468 C6.0286528,11.8843431 6.0580288,11.887387 6.0886528,11.887387 C6.09490272,11.887387 6.10177776,11.887387 6.1080272,11.8867783 C6.2136528,11.8819082 6.3123952,11.8362505 6.3830352,11.7601549 L15.8092752,1.59381725 C15.8799008,1.51772166 15.9161504,1.41727699 15.9111504,1.31499647 C15.9055254,1.21272374 15.8586512,1.11654452 15.7805248,1.04775491" id="Shape" fill-rule="nonzero"></path>
                                            </g>
                                        </g>
                                    </g>
                                </g>
                            </g>
                        </g>
                    </g>
                </g>
            </g>
        </g>
    </g>
</svg>