<?xml version="1.0" encoding="UTF-8"?>
<svg width="40px" height="40px" viewBox="0 0 40 40" version="1.1" xmlns="http://www.w3.org/2000/svg" xmlns:xlink="http://www.w3.org/1999/xlink">
    <!-- Generator: Sketch 46.2 (44496) - http://www.bohemiancoding.com/sketch -->
    <title>Group 7</title>
    <desc>Created with Sketch.</desc>
    <defs></defs>
    <g id="Symbols" stroke="none" stroke-width="1" fill="none" fill-rule="evenodd">
        <g id="1.-Icons-/-_misc-/-agreed">
            <g id="Group-7">
                <circle id="Oval-2" fill="#73CD1F" cx="20" cy="20" r="20"></circle>
                <g id="icons/_misc/checkmark/disabled" transform="translate(8.000000, 12.000000)" fill-rule="nonzero" fill="#FFFFFF">
                    <g id="np_checkmark_942794_000000" transform="translate(0.571429, 0.000000)">
                        <path d="M22.5437714,1.4842987 L21.00448,0.141519481 C20.7723429,-0.060285974 20.4143086,-0.0430387013 20.20448,0.181191299 L8.49819429,12.7009186 L2.41956571,7.39868481 C2.18742857,7.19687935 1.82939429,7.21412662 1.61867429,7.43835662 L0.228502857,8.92517221 C0.127609143,9.03297429 0.075824,9.17440987 0.0829668571,9.32016831 C0.0910027429,9.46505468 0.157965714,9.60130857 0.269574857,9.69876052 L8.29540343,16.6998904 C8.37218971,16.7671596 8.46861714,16.8094168 8.57039771,16.8266662 C8.61236114,16.8361527 8.65432686,16.8404649 8.69807543,16.8404649 C8.70700389,16.8404649 8.71682537,16.8404649 8.72575314,16.8396026 C8.87664686,16.8327032 9.01770743,16.7680215 9.11862171,16.6602195 L22.5846789,2.25790777 C22.6855726,2.15010569 22.7373577,2.00780906 22.7302149,1.86291166 C22.7221792,1.7180253 22.655216,1.5817714 22.5436069,1.48431945" id="Shape"></path>
                    </g>
                </g>
            </g>
        </g>
    </g>
</svg>