<?xml version="1.0" encoding="UTF-8"?>
<svg width="24px" height="24px" viewBox="0 0 24 24" version="1.1" xmlns="http://www.w3.org/2000/svg" xmlns:xlink="http://www.w3.org/1999/xlink">
    <!-- Generator: Sketch 51.1 (57501) - http://www.bohemiancoding.com/sketch -->
    <title>Icon</title>
    <desc>Created with Sketch.</desc>
    <defs></defs>
    <g id="iOS" stroke="none" stroke-width="1" fill="none" fill-rule="evenodd">
        <g id="6-1-1-Settings" transform="translate(-16.000000, -342.000000)">
            <g id="Main-Stack">
                <g id="Cells" transform="translate(0.000000, 156.000000)">
                    <g id="Text" transform="translate(0.000000, 176.000000)">
                        <g id="UI-Views-/-Tables-/-Overrides-/-Label-/-Label" transform="translate(0.000000, 10.000000)">
                            <g id="Icon" transform="translate(16.000000, 0.000000)">
                                <g id="Group-2">
                                    <rect id="Rectangle-2" fill="#0052B2" x="0" y="0" width="24" height="24" rx="3.42857143"></rect>
                                    <g id="Group" transform="translate(6.000000, 4.285714)" fill="#FFFFFF" fill-rule="nonzero">
                                        <path d="M11.5285714,5.08525714 C11.7656229,5.08525714 11.9571429,4.89373714 11.9571429,4.65668571 L11.9571429,3.89998286 C11.9571429,3.79551771 11.918304,3.69373714 11.8493297,3.61537714 L8.89218686,0.283148571 C8.81049086,0.191406857 8.69398114,0.139176 8.57142686,0.139176 L0.471426857,0.139176 C0.234375429,0.139176 0.0428554286,0.330696 0.0428554286,0.567747429 L0.0428554286,14.8612903 C0.0428554286,15.0983417 0.234375429,15.2898617 0.471426857,15.2898617 L11.5285697,15.2898617 C11.7656211,15.2898617 11.9571411,15.0983417 11.9571411,14.8612903 L11.9571411,5.999976 C11.9571411,5.76292457 11.7656211,5.57140457 11.5285697,5.57140457 C11.2915183,5.57140457 11.0999983,5.76292457 11.0999983,5.999976 L11.0999983,14.4322046 L0.899998286,14.4322046 L0.899998286,0.996490286 L8.13616971,0.996490286 L8.13616971,3.92140457 C8.13616971,4.158456 8.32768971,4.349976 8.56474114,4.349976 L11.0999983,4.349976 L11.0999983,4.65667886 C11.0999983,4.89373029 11.2915183,5.08525029 11.5285697,5.08525029 L11.5285714,5.08525714 Z M8.99331429,3.49284 L8.99331429,1.68821143 L10.5944229,3.49284 L8.99331429,3.49284 Z M9.13661829,7.01381143 L2.86404686,7.01381143 C2.62699543,7.01381143 2.43547543,7.20533143 2.43547543,7.44238286 C2.43547543,7.67943429 2.62699543,7.87095429 2.86404686,7.87095429 L9.13661829,7.87095429 C9.37366971,7.87095429 9.56518971,7.67943429 9.56518971,7.44238286 C9.56518971,7.206 9.37300114,7.01381143 9.13661829,7.01381143 Z M9.13661829,9.33084 L2.86404686,9.33084 C2.62699543,9.33084 2.43547543,9.52236 2.43547543,9.75941143 C2.43547543,9.99646286 2.62699543,10.1879829 2.86404686,10.1879829 L9.13661829,10.1879829 C9.37366971,10.1879829 9.56518971,9.99646286 9.56518971,9.75941143 C9.56518971,9.52236 9.37300114,9.33084 9.13661829,9.33084 Z M9.13661829,11.6464971 L2.86404686,11.6464971 C2.62699543,11.6464971 2.43547543,11.8380171 2.43547543,12.0750686 C2.43547543,12.31212 2.62699543,12.50364 2.86404686,12.50364 L9.13661829,12.50364 C9.37366971,12.50364 9.56518971,12.31212 9.56518971,12.0750686 C9.56518971,11.8386857 9.37300114,11.6464971 9.13661829,11.6464971 Z" id="Shape"></path>
                                    </g>
                                </g>
                            </g>
                        </g>
                    </g>
                </g>
            </g>
        </g>
    </g>
</svg>