<?xml version="1.0" encoding="UTF-8"?>
<svg width="35px" height="35px" viewBox="0 0 35 35" version="1.1" xmlns="http://www.w3.org/2000/svg" xmlns:xlink="http://www.w3.org/1999/xlink">
    <!-- Generator: Sketch 51.2 (57519) - http://www.bohemiancoding.com/sketch -->
    <title>Icon</title>
    <desc>Created with Sketch.</desc>
    <defs></defs>
    <g id="iOS" stroke="none" stroke-width="1" fill="none" fill-rule="evenodd">
        <g id="6-1-1-Settings" transform="translate(-16.000000, -386.000000)">
            <g id="Main-Stack">
                <g id="Cells" transform="translate(0.000000, 156.000000)">
                    <g id="Text" transform="translate(0.000000, 220.000000)">
                        <g id="UI-Views-/-Tables-/-Overrides-/-Label-/-Label" transform="translate(0.000000, 10.000000)">
                            <g id="Icon" transform="translate(16.000000, 0.000000)">
                                <g id="Group-2">
                                    <rect id="Rectangle-2" fill="#F8261C" x="0" y="0" width="35" height="35" rx="3.42857143"></rect>
                                    <g id="Group" transform="translate(6.250000, 6.250000)" fill="#FFFFFF" fill-rule="nonzero">
                                        <path d="M15.9695783,7.15884146 C15.644494,7.15562588 15.352238,6.95626463 15.2272681,6.65185061 C15.1023145,6.3485122 15.1679684,5.99803354 15.3945786,5.76222256 L16.8505997,4.28844512 C17.1714551,3.98617683 17.6701961,3.99583537 17.9804792,4.30881009 C18.289678,4.62284973 18.298163,5.12770034 17.99954,5.45246863 L16.5361183,6.91765765 C16.3857505,7.06985918 16.1824345,7.15667625 15.9696062,7.15882198 L15.9695783,7.15884146 Z" id="Shape"></path>
                                        <path d="M6.25933735,7.15884146 C6.04649277,7.15669765 5.84316867,7.06987866 5.6928253,6.91767713 L3.25306627,4.44816494 C2.97775301,4.12018628 2.9989247,3.63355518 3.30071747,3.33024421 C3.60251566,3.02797591 4.08431386,3.01189665 4.40516928,3.29272957 L6.84492831,5.76224177 C7.07683283,5.99804726 7.14672651,6.35174177 7.02071024,6.65936067 C6.8946994,6.96590945 6.59925542,7.16635152 6.26994217,7.16742165 L6.25933735,7.15884146 Z" id="Shape"></path>
                                        <path d="M3.8301506,19.446311 C3.50083735,19.446311 3.2043253,19.24695 3.07726807,18.9393201 C2.95125723,18.6317012 3.02008554,18.2769146 3.25305,18.0411311 L5.69280904,15.5716189 C6.01683614,15.2929482 6.49760422,15.314378 6.79620361,15.6198512 C7.09588735,15.9253299 7.11177289,16.4130037 6.8343262,16.737772 L4.39456717,19.2072841 C4.2441994,19.3584128 4.04194066,19.4441598 3.83016958,19.4463027 L3.8301506,19.446311 Z" id="Shape"></path>
                                        <path d="M18.3987651,19.446311 C18.1827434,19.446311 17.976253,19.360564 17.8237681,19.2072924 L15.384009,16.7377802 C15.1086958,16.4098015 15.1298675,15.9231704 15.4316602,15.6209296 C15.7334584,15.3175912 16.2152566,15.3015119 16.536112,15.5823421 L18.9758711,18.0518543 C19.2077756,18.2876598 19.2776693,18.6413543 19.151653,18.9489732 C19.0256422,19.2565921 18.7301982,19.4570341 18.4008849,19.4570341 L18.3987651,19.446311 Z" id="Shape"></path>
                                        <path d="M11.1144578,22.5 C7.65921687,22.4989282 4.40078313,20.8708079 2.29879518,18.0946646 C0.195777108,15.3197561 -0.511536145,11.7117988 0.384262048,8.33460366 C1.28011446,4.95631098 3.67658133,2.19182927 6.86914157,0.85527439 C10.0617018,-0.482378049 13.6874548,-0.240146341 16.6791416,1.50909146 C19.6716416,3.25832927 21.6887801,6.31723171 22.1390512,9.78470122 C22.5891054,13.2532683 21.4200542,16.7344573 18.9760392,19.2072622 C16.8931355,21.3198476 14.0637199,22.5054329 11.1145934,22.4999451 L11.1144578,22.5 Z M11.1144578,1.64634146 C8.16424699,1.64634146 5.38237952,3.03544207 3.58753012,5.40411585 C1.79159639,7.77287195 1.18694277,10.8521341 1.9504247,13.7365244 C2.71390663,16.6198171 4.75967169,18.9798476 7.48434036,20.1224085 C10.2100934,21.264997 13.3053343,21.0592043 15.859491,19.5661372 C18.4136476,18.0730701 20.1374729,15.4631799 20.5218705,12.5027835 C20.9062681,9.5423872 19.9098163,6.57019207 17.823741,4.45875915 C16.0458072,2.6548628 13.6314217,1.64296646 11.1144036,1.64625915 L11.1144578,1.64634146 Z" id="Shape"></path>
                                        <path d="M11.1144578,17.933872 C8.90766867,17.933872 6.84813253,16.8180915 5.62174699,14.9605793 C4.39658133,13.1041646 4.16784036,10.7503354 5.01286446,8.68719512 C5.85788855,6.62391768 7.66439458,5.1245122 9.82786446,4.68823171 C11.9923102,4.25307622 14.2275633,4.94011372 15.7873825,6.5200061 C17.0284337,7.77298171 17.726259,9.47518902 17.726259,11.2488476 C17.726259,13.0225061 17.029491,14.7248232 15.789497,15.9787866 C14.549503,17.2328323 12.8669367,17.9359573 11.1143765,17.9338171 L11.1144578,17.933872 Z M11.1144578,6.20917683 C9.56737952,6.21132064 8.10921687,6.94232012 7.1688253,8.1856372 C6.22843373,9.42895427 5.91294578,11.0442348 6.31534337,12.5566738 C6.71668373,14.0690305 7.79147892,15.306064 9.22109639,15.9039604 C10.6506325,16.5009787 12.2740482,16.3916341 13.6134759,15.6081402 C14.953012,14.8235488 15.8552078,13.4537378 16.0564066,11.9016768 C16.2565428,10.3485732 15.7334367,8.7889939 14.6385,7.68292683 C13.7045331,6.7365 12.4359398,6.20593902 11.1144036,6.20914939 L11.1144578,6.20917683 Z" id="Shape"></path>
                                    </g>
                                </g>
                            </g>
                        </g>
                    </g>
                </g>
            </g>
        </g>
    </g>
</svg>