<svg xmlns="http://www.w3.org/2000/svg" xmlns:xlink="http://www.w3.org/1999/xlink" width="25" height="24" viewBox="0 0 25 24">
    <defs>
        <path id="prefix__a" d="M14.336 2.063c.304.291.456.645.456 1.062V11.5c0 .417-.152.77-.456 1.063-.304.291-.673.437-1.107.437h-2.604v1.5c0 .417-.152.77-.456 1.062-.304.292-.672.438-1.107.438H1.771c-.434 0-.803-.146-1.107-.438-.304-.291-.456-.645-.456-1.062v-10c0-.417.152-.77.456-1.062C.968 3.146 1.337 3 1.771 3h2.604V1.5c0-.417.152-.77.456-1.062C5.135.146 5.503 0 5.937 0h5.6c.433 0 .802.146 1.106.438l1.693 1.625zM11.666 1v2h2.084c-.043-.083-.098-.156-.163-.219l-1.692-1.625c-.066-.062-.142-.114-.228-.156zM9.584 14.5V13H5.937c-.434 0-.802-.146-1.106-.437-.304-.292-.456-.646-.456-1.063V4H1.771c-.152 0-.277.047-.375.14-.097.094-.146.214-.146.36v10c0 .146.049.266.146.36.098.093.223.14.375.14h7.291c.152 0 .277-.047.375-.14.097-.094.146-.214.146-.36zm4.167-3V4h-2.344c-.217 0-.401-.073-.553-.219-.152-.146-.228-.323-.228-.531V1H5.937c-.151 0-.276.047-.374.14-.098.094-.146.214-.146.36v10c0 .146.048.266.146.36.098.093.223.14.374.14h7.292c.152 0 .277-.047.374-.14.098-.094.147-.214.147-.36z"/>
    </defs>
    <g fill="none" fill-rule="evenodd" transform="translate(5 4)">
        <mask id="prefix__b" fill="#fff">
            <use xlink:href="#prefix__a"/>
        </mask>
        <use fill="#003139" xlink:href="#prefix__a"/>
        <g fill="#0A8CAA" mask="url(#prefix__b)">
            <path d="M0 0H25V24H0z" transform="translate(-5 -4)"/>
        </g>
    </g>
</svg>
