<?xml version="1.0" encoding="UTF-8"?>
<svg width="40px" height="40px" viewBox="0 0 40 40" version="1.1" xmlns="http://www.w3.org/2000/svg" xmlns:xlink="http://www.w3.org/1999/xlink">
    <!-- Generator: Sketch 51.2 (57519) - http://www.bohemiancoding.com/sketch -->
    <title>deactivated</title>
    <desc>Created with Sketch.</desc>
    <defs></defs>
    <g id="deactivated" stroke="none" stroke-width="1" fill="none" fill-rule="evenodd">
        <g id="Group-7-Copy" fill="#002B32" fill-opacity="0" stroke="#979797" stroke-width="2">
            <circle id="Oval-2" cx="20" cy="20" r="19"></circle>
        </g>
        <path d="M20.9191919,18.3650793 L29.6842713,18.3650793 C30.0156421,18.3650793 30.2842712,18.6337085 30.2842712,18.9650793 L30.2842712,20.3191919 C30.2842712,20.6505628 30.0156421,20.9191919 29.6842713,20.9191919 L20.9191919,20.9191919 L20.9191919,29.6842713 C20.9191919,30.0156421 20.6505628,30.2842712 20.3191919,30.2842712 L18.9650793,30.2842712 C18.6337085,30.2842712 18.3650793,30.0156421 18.3650793,29.6842713 L18.3650793,20.9191919 L9.59999996,20.9191919 C9.26862913,20.9191919 9,20.6505628 9,20.3191919 L9,18.9650793 C9,18.6337085 9.26862913,18.3650793 9.59999996,18.3650793 L18.3650793,18.3650793 L18.3650793,9.59999996 C18.3650793,9.26862913 18.6337085,9 18.9650793,9 L20.3191919,9 C20.6505628,9 20.9191919,9.26862913 20.9191919,9.59999996 L20.9191919,18.3650793 Z" id="Combined-Shape" fill="#898989" transform="translate(19.642136, 19.642136) rotate(-315.000000) translate(-19.642136, -19.642136) "></path>
    </g>
</svg>