<?xml version="1.0" encoding="UTF-8"?>
<svg width="40px" height="40px" viewBox="0 0 40 40" version="1.1" xmlns="http://www.w3.org/2000/svg" xmlns:xlink="http://www.w3.org/1999/xlink">
    <!-- Generator: Sketch 46.2 (44496) - http://www.bohemiancoding.com/sketch -->
    <title>1. Icons / _misc / disagreed</title>
    <desc>Created with Sketch.</desc>
    <defs></defs>
    <g id="Symbols" stroke="none" stroke-width="1" fill="none" fill-rule="evenodd">
        <g id="1.-Icons-/-_misc-/-disagreed">
            <g id="Group-7" fill="#F7211B">
                <path d="M20,40 C31.045695,40 40,31.045695 40,20 C40,12.8936107 36.2936726,6.65288061 30.7085982,3.10538988 C27.6126074,1.13889888 23.9393057,0 20,0 C14.619448,0 9.73514846,2.12470895 6.14035103,5.58087707 C2.35541561,9.21985071 0,14.334857 0,20 C0,31.045695 8.954305,40 20,40 Z" id="Oval-2"></path>
            </g>
            <path d="M21.44,18.56 L21.44,9 C21.44,8.44771525 20.9922847,8 20.44,8 L19.56,8 C19.0077153,8 18.56,8.44771525 18.56,9 L18.56,9 L18.56,18.56 L9,18.56 C8.44771525,18.56 8,19.0077153 8,19.56 L8,19.56 L8,20.44 C8,20.9922847 8.44771525,21.44 9,21.44 L9,21.44 L18.56,21.44 L18.56,31 C18.56,31.5522847 19.0077153,32 19.56,32 L19.56,32 L20.44,32 C20.9922847,32 21.44,31.5522847 21.44,31 L21.44,21.44 L31,21.44 C31.5522847,21.44 32,20.9922847 32,20.44 L32,19.56 C32,19.0077153 31.5522847,18.56 31,18.56 L21.44,18.56 Z" id="Combined-Shape" fill="#FFFFFF" transform="translate(20.000000, 20.000000) rotate(-315.000000) translate(-20.000000, -20.000000) "></path>
        </g>
    </g>
</svg>