<?xml version="1.0" encoding="UTF-8"?>
<svg width="34px" height="34px" viewBox="0 0 34 34" version="1.1" xmlns="http://www.w3.org/2000/svg" xmlns:xlink="http://www.w3.org/1999/xlink">
    <!-- Generator: Sketch 51.2 (57519) - http://www.bohemiancoding.com/sketch -->
    <title>Icon</title>
    <desc>Created with Sketch.</desc>
    <defs></defs>
    <g id="iOS" stroke="none" stroke-width="1" fill="none" fill-rule="evenodd">
        <g id="6-1-1-Settings" transform="translate(-16.000000, -430.000000)">
            <g id="Main-Stack">
                <g id="Cells" transform="translate(0.000000, 156.000000)">
                    <g id="Text" transform="translate(0.000000, 264.000000)">
                        <g id="UI-Views-/-Tables-/-Overrides-/-Label-/-Label" transform="translate(0.000000, 10.000000)">
                            <g id="Icon" transform="translate(16.000000, 0.000000)">
                                <rect id="Rectangle-2" fill="#01C8EC" x="0" y="0" width="33.6" height="33.6" rx="3.42857143"></rect>
                                <g id="export-(2)" transform="translate(7.000000, 5.600000)" fill="#FFFFFF" fill-rule="nonzero">
                                    <path d="M17.5,12.5915041 C17.1136,12.5915041 16.8,12.9038029 16.8,13.2885996 L16.8,19.5624585 L1.4,19.5624585 L1.4,4.22635892 L7.7,4.22635892 C8.0864,4.22635892 8.4,3.91406017 8.4,3.52926349 C8.4,3.1444668 8.0864,2.83216805 7.7,2.83216805 L0.7,2.83216805 C0.3136,2.83216805 0,3.1444668 0,3.52926349 L0,20.2595539 C0,20.6443506 0.3136,20.9566494 0.7,20.9566494 L17.5,20.9566494 C17.8864,20.9566494 18.2,20.6443506 18.2,20.2595539 L18.2,13.2885996 C18.2,12.9038029 17.8864,12.5915041 17.5,12.5915041 Z" id="Shape"></path>
                                    <path d="M22.1606,5.09633402 L16.5606,0.216665975 C16.3548,0.0354211618 16.0608,-0.00779875519 15.8102,0.106524896 C15.561,0.219454357 15.4,0.467620332 15.4,0.740881743 L15.4,2.83216805 L14.9856,2.83216805 C10.486,2.83216805 6.6136,6.17683195 5.9766,10.6131473 L5.607,13.1910062 C5.5608,13.5158527 5.7484,13.8309398 6.0606,13.9438693 C6.139,13.9717531 6.2202,13.985695 6.3,13.985695 C6.5352,13.985695 6.7634,13.8671888 6.8936,13.6580602 L7.9254,12.0129149 C9.3422,9.75711411 11.7838,8.40893154 14.4564,8.40893154 L15.4,8.40893154 L15.4,10.5002178 C15.4,10.7734793 15.561,11.0216452 15.8102,11.1345747 C16.058,11.2475041 16.3534,11.2056784 16.5606,11.0244336 L22.1606,6.14476556 C22.3132,6.01231743 22.4,5.82270747 22.4,5.62054979 C22.4,5.41839212 22.3132,5.22878216 22.1606,5.09633402 Z M16.8,8.9638195 L16.8,7.7118361 C16.8,7.32703942 16.4864,7.01474066 16.1,7.01474066 L14.4564,7.01474066 C11.7124,7.01474066 9.1742,8.2165332 7.4578,10.2813299 C8.2138,6.79445851 11.3596,4.22635892 14.9856,4.22635892 L16.1,4.22635892 C16.4864,4.22635892 16.8,3.91406017 16.8,3.52926349 L16.8,2.27728008 L20.6374,5.62054979 L16.8,8.9638195 Z" id="Shape"></path>
                                </g>
                            </g>
                        </g>
                    </g>
                </g>
            </g>
        </g>
    </g>
</svg>