<?xml version="1.0" encoding="UTF-8"?>
<svg width="20px" height="14px" viewBox="0 0 20 14" version="1.1" xmlns="http://www.w3.org/2000/svg" xmlns:xlink="http://www.w3.org/1999/xlink">
    <!-- Generator: Sketch 46.2 (44496) - http://www.bohemiancoding.com/sketch -->
    <title>1. Icons / filter</title>
    <desc>Created with Sketch.</desc>
    <defs></defs>
    <g id="Symbols" stroke="none" stroke-width="1" fill="none" fill-rule="evenodd">
        <g id="2.-Elements-/-Form-/-Dropdown-/-Filter---Open" transform="translate(-10.000000, -11.000000)" fill="#002B32">
            <g id="Filter">
                <g id="Filter-Icon" transform="translate(8.000000, 6.000000)">
                    <g id="1.-Icons-/-filter">
                        <g id="Icon" transform="translate(2.000000, 5.000000)">
                            <rect id="Rectangle-2" x="0" y="0" width="20" height="2" rx="1"></rect>
                            <path d="M3,4 L17,4 L17,4 C17.5522847,4 18,4.44771525 18,5 L18,5 L18,5 C18,5.55228475 17.5522847,6 17,6 L3,6 L3,6 C2.44771525,6 2,5.55228475 2,5 L2,5 L2,5 C2,4.44771525 2.44771525,4 3,4 Z" id="Rectangle-2-Copy"></path>
                            <rect id="Rectangle-2-Copy-2" x="5" y="8" width="10" height="2" rx="1"></rect>
                            <rect id="Rectangle-2-Copy-3" x="8" y="12" width="4" height="2" rx="1"></rect>
                        </g>
                    </g>
                </g>
            </g>
        </g>
    </g>
</svg>