<?xml version="1.0" encoding="UTF-8"?>
<svg width="24px" height="24px" viewBox="0 0 24 24" version="1.1" xmlns="http://www.w3.org/2000/svg" xmlns:xlink="http://www.w3.org/1999/xlink">
    <!-- Generator: Sketch 51.1 (57501) - http://www.bohemiancoding.com/sketch -->
    <title>Icon</title>
    <desc>Created with Sketch.</desc>
    <defs></defs>
    <g id="iOS" stroke="none" stroke-width="1" fill="none" fill-rule="evenodd">
        <g id="6-1-1-Settings" transform="translate(-16.000000, -166.000000)">
            <g id="Main-Stack">
                <g id="Cells" transform="translate(0.000000, 156.000000)">
                    <g id="Text">
                        <g id="UI-Views-/-Tables-/-Overrides-/-Label-/-Label" transform="translate(0.000000, 10.000000)">
                            <g id="General-/-1.-Icons-/-Settings-/-Notifications" transform="translate(16.000000, 0.000000)">
                                <g id="Group">
                                    <rect id="Rectangle-2" fill="#01C8EC" x="0" y="0" width="24" height="24" rx="3.42857143"></rect>
                                    <g id="Notif" transform="translate(4.285714, 4.285714)" fill="#FFFFFF" fill-rule="nonzero">
                                        <path d="M9.98553383,1.89284211 L2.78830827,1.89284211 C1.79943835,1.89284211 0.996929323,2.6945594 0.996929323,3.68422105 L0.996929323,12.6403038 C0.996929323,13.6291737 1.79943835,14.4316827 2.78830827,14.4316827 L11.744391,14.4316827 C12.7340526,14.4316827 13.5357699,13.6291737 13.5357699,12.6403038 L13.5357699,5.4430782 C13.8521774,5.39787654 14.1535218,5.30588977 14.4318654,5.17346391 L14.4318654,12.6402835 C14.4318654,14.1239842 13.2288835,15.326885 11.7444519,15.326885 L2.78836917,15.326885 C1.30466842,15.326885 0.101767669,14.123903 0.101767669,12.6402835 L0.101767669,3.68420075 C0.101767669,2.19970827 1.30474962,0.996787218 2.78836917,0.996787218 L10.2551887,0.996787218 C10.1227588,1.27513083 10.0307639,1.57647519 9.98557444,1.89288271 L9.98553383,1.89284211 Z" id="Shape"></path>
                                        <path d="M13.0899248,0.101503759 C14.3254083,0.101503759 15.3270677,1.33698722 15.3270677,2.33864662 C15.3270677,3.57413008 14.3255098,4.57578947 13.0899248,4.57578947 C11.8544414,4.57578947 10.852782,3.34030602 10.852782,2.33864662 C10.852782,1.10316316 11.8543398,0.101503759 13.0899248,0.101503759 Z" id="Shape"></path>
                                    </g>
                                </g>
                            </g>
                        </g>
                    </g>
                </g>
            </g>
        </g>
    </g>
</svg>