<?xml version="1.0" encoding="UTF-8"?>
<svg width="100px" height="100px" viewBox="0 0 27 24" version="1.1" xmlns="http://www.w3.org/2000/svg" xmlns:xlink="http://www.w3.org/1999/xlink">
    <!-- Generator: Sketch 46.2 (44496) - http://www.bohemiancoding.com/sketch -->
    <title>icons/light/calendar</title>
    <desc>Created with Sketch.</desc>
    <defs></defs>
    <g id="Symbols" stroke="none" stroke-width="1" fill="none" fill-rule="evenodd">
        <g id="3.-Components-/-Navigation-/-Normal" transform="translate(-1129.000000, -22.000000)" fill="#859696">
            <g id="Main-Navigation" transform="translate(1051.000000, 16.000000)">
                <g id="Nav-Appointments" transform="translate(60.000000, 6.000000)">
                    <g id="1.-Icons-/-calendar-/-light" transform="translate(18.000000, 0.000000)">
                        <g id="np_calendar_938983_000000">
                            <path d="M23.5492826,1.6512 L20.7039228,1.6512 L20.7039228,0.881336471 C20.7039228,0.410371765 20.3038239,0.0254682353 19.8143315,0.0254682353 C19.3248391,0.0254682353 18.9247402,0.4104 18.9247402,0.881336471 L18.9247402,1.6512 L14.3896207,1.6512 L14.3896207,0.881336471 C14.3896207,0.410371765 13.9895217,0.0254682353 13.5000293,0.0254682353 C13.010537,0.0254682353 12.610438,0.4104 12.610438,0.881336471 L12.610438,1.6512 L8.07531848,1.6512 L8.07531848,0.881336471 C8.07531848,0.410371765 7.67521957,0.0254682353 7.18572717,0.0254682353 C6.69623478,0.0254682353 6.29613587,0.4104 6.29613587,0.881336471 L6.29613587,1.6512 L3.45077609,1.6512 C1.62801196,1.6512 0.115982609,3.10596706 0.115982609,4.85957647 L0.115982609,20.7738353 C0.115982609,22.5275012 1.62807065,23.9822118 3.45077609,23.9822118 L23.5493413,23.9822118 C25.3721054,23.9822118 26.8841348,22.5274447 26.8841348,20.7738353 L26.8841348,4.85957647 C26.8841348,3.10591059 25.3720467,1.6512 23.5493413,1.6512 L23.5492826,1.6512 Z M25.1060967,20.7741176 C25.1060967,21.5869835 24.3941772,22.2719153 23.5492826,22.2719153 L3.45071739,22.2719153 C2.60582283,22.2719153 1.89390326,21.5869835 1.89390326,20.7741176 L1.89390326,10.1649882 L25.1050989,10.1649882 L25.1060967,20.7741176 Z M25.1060967,8.45308235 L1.89372717,8.45308235 L1.89372717,4.85957647 C1.89372717,4.04671059 2.60564674,3.36177882 3.4505413,3.36177882 L6.29590109,3.36177882 L6.29590109,4.13164235 C6.29590109,4.60260706 6.696,4.98751059 7.18549239,4.98751059 C7.67498478,4.98751059 8.0750837,4.60257882 8.0750837,4.13164235 L8.0750837,3.36177882 L12.6102033,3.36288169 L12.6102033,4.13274522 C12.6102033,4.60370993 13.0103022,4.98861346 13.4997946,4.98861346 C13.989287,4.98861346 14.3893859,4.60368169 14.3893859,4.13274522 L14.3893859,3.36288169 L18.9245054,3.36288169 L18.9245054,4.13274522 C18.9245054,4.60370993 19.3246043,4.98861346 19.8140967,4.98861346 C20.3035891,4.98861346 20.703688,4.60368169 20.703688,4.13274522 L20.703688,3.36288169 L23.5490478,3.36288169 C24.3939424,3.36288169 25.105862,4.04781346 25.105862,4.86067934 L25.1060967,8.45308235 Z" id="Shape" fill-rule="nonzero"></path>
                        </g>
                    </g>
                </g>
            </g>
        </g>
    </g>
</svg>