<?xml version="1.0" encoding="UTF-8"?>
<svg width="125px" height="130px" viewBox="0 0 125 130" version="1.1" xmlns="http://www.w3.org/2000/svg" xmlns:xlink="http://www.w3.org/1999/xlink">
    <!-- Generator: Sketch 57.1 (83088) - https://sketch.com -->
    <title>icon-security</title>
    <desc>Created with Sketch.</desc>
    <g id="Release-7" stroke="none" stroke-width="1" fill="none" fill-rule="evenodd">
        <g id="MFA-1-1-1" transform="translate(-126.000000, -239.000000)">
            <g id="Onboarding-Icon" transform="translate(79.000000, 194.000000)">
                <g id="icon-security" transform="translate(47.000000, 45.000000)">
                    <path d="M115.304,56.1677381 L109.412852,56.1677381 L109.412852,32.6083333 C109.412852,14.7441667 94.8725677,0.216666667 77.0051097,0.216666667 C59.138271,0.216666667 44.5911742,14.7437024 44.5911742,32.6083333 L44.5911742,56.1677381 L38.6939871,56.1677381 C33.8250839,56.1677381 29.8573419,60.1335119 29.8573419,65 L29.8573419,120.949524 C29.8573419,125.816012 33.8250839,129.781784 38.6939871,129.781784 L115.303535,129.781784 C120.172439,129.781784 124.140181,125.816012 124.140181,120.949524 L124.140181,65 C124.140181,60.1335119 120.172439,56.1677381 115.303535,56.1677381 L115.304,56.1677381 Z M50.483871,32.6083333 C50.483871,17.9966429 62.3810581,6.10535714 77,6.10535714 C91.6189419,6.10535714 103.516129,17.9966429 103.516129,32.6083333 L103.516129,56.1677381 L50.483871,56.1677381 L50.483871,32.6083333 Z M118.244387,120.949524 C118.244387,122.575762 116.919788,123.89356 115.29889,123.89356 L38.6955355,123.899611 C37.0684903,123.899611 35.7500387,122.575669 35.7500387,120.955575 L35.7500387,64.9998607 C35.7500387,63.3736226 37.0746374,62.055825 38.6955355,62.055825 L115.305084,62.055825 C116.932129,62.055825 118.250581,63.3797667 118.250581,64.9998607 L118.250581,120.949385 L118.244387,120.949524 Z" id="Fill-1" fill="#009DB9"></path>
                    <path d="M84.4598721,77.5289835 C81.5710555,75.2968801 77.8196701,74.4873242 74.1470328,75.3207915 C69.8533712,76.2931538 66.4025913,79.6078084 65.3575391,83.7702404 C64.1842815,88.4261068 65.9589521,93.1537074 69.794184,95.9558844 L69.794184,103.001915 C69.794184,106.85779 73.0280281,110 76.9963492,110 C80.9646703,110 84.1985144,106.85779 84.1985144,103.001915 L84.1985144,95.9558844 C87.1908141,93.7620393 89,90.3180544 89,86.6729681 C89,83.0852693 87.3436408,79.7563046 84.4597459,77.5289835 L84.4598721,77.5289835 Z" id="Fill-2" fill="#009DB9"></path>
                    <path d="M80.4981618,93.1937117 C79.7844103,93.6158962 79.338915,94.3923361 79.338915,95.2366802 L79.338915,103.636766 C79.338915,104.942178 78.2898403,106 77.0060982,106 C75.7174875,106 74.6732813,104.937246 74.6732813,103.636766 L74.6637038,95.2366802 C74.6637038,94.3922988 74.2182085,93.6158465 73.504457,93.1937117 C70.7404682,91.563188 69.4518576,88.4574286 70.2183037,85.2788702 C70.8123056,82.8136427 72.8481338,80.7755191 75.2864137,80.2029413 C77.4899771,79.688553 79.6360264,80.1592619 81.3461211,81.532579 C83.0323026,82.8864417 84,84.9149995 84,87.093876 C84.0047818,89.6222126 82.6922458,91.8981131 80.4982476,93.1938359 L80.4981618,93.1937117 Z" id="Path" fill="#CCE9F2"></path>
                    <g id="Group" transform="translate(18.000000, 65.000000) rotate(90.000000) translate(-18.000000, -65.000000) translate(-31.000000, 47.000000)" fill-rule="nonzero">
                        <path d="M92.8453608,15.4054054 L92.8453608,2.59459459 C92.8453608,0.91746572 91.9244104,0 90.2371134,0 C88.5498164,0 87.628866,0.91746572 87.628866,2.59459459 L87.628866,15.4054054 L77.3814433,15.4054054 L77.3814433,7.72972973 C77.3814433,6.05260086 76.4604929,5.13513514 74.7731959,5.13513514 C73.0858989,5.13513514 72.1649485,6.05260086 72.1649485,7.72972973 L72.1649485,15.4054054 L36.2707521,15.4054054 L35.7326279,13.5827058 C33.3372067,5.46909049 26.2818344,0 18.0721649,0 C8.13744524,0 0,8.10665491 0,18 C0,27.8933451 8.13744524,36 18.0721649,36 C26.2818344,36 33.3372067,30.5309095 35.7326279,22.4172942 L36.2707521,20.5945946 L95.3917526,20.5945946 C97.0790496,20.5945946 98,19.6771289 98,18 C98,16.3228711 97.0790496,15.4054054 95.3917526,15.4054054 L92.8453608,15.4054054 Z" id="Fill-1" fill="#009DB9" transform="translate(49.000000, 18.000000) scale(1, -1) translate(-49.000000, -18.000000) "></path>
                        <path d="M18.3,30.6 C11.535,30.6 6,25.065 6,18.3 C6,11.535 11.535,6 18.3,6 C25.065,6 30.6,11.535 30.6,18.3 C30.6,25.065 25.065,30.6 18.3,30.6 Z" id="Path" fill="#FFFFFF" opacity="0.966982887"></path>
                    </g>
                </g>
            </g>
        </g>
    </g>
</svg>