<?xml version="1.0" encoding="UTF-8"?>
<svg width="35px" height="35px" viewBox="0 0 35 35" version="1.1" xmlns="http://www.w3.org/2000/svg" xmlns:xlink="http://www.w3.org/1999/xlink">
    <!-- Generator: Sketch 51.2 (57519) - http://www.bohemiancoding.com/sketch -->
    <title>Icon</title>
    <desc>Created with Sketch.</desc>
    <defs></defs>
    <g id="iOS" stroke="none" stroke-width="1" fill="none" fill-rule="evenodd">
        <g id="6-1-1-Settings" transform="translate(-16.000000, -342.000000)">
            <g id="Main-Stack">
                <g id="Cells" transform="translate(0.000000, 156.000000)">
                    <g id="Text" transform="translate(0.000000, 176.000000)">
                        <g id="UI-Views-/-Tables-/-Overrides-/-Label-/-Label" transform="translate(0.000000, 10.000000)">
                            <g id="Icon" transform="translate(16.000000, 0.000000)">
                                <g id="Group-2">
                                    <rect id="Rectangle-2" fill="#009DB9" x="0" y="0" width="35" height="35" rx="3.42857143"></rect>
                                    <g id="Group" transform="translate(8.750000, 6.250000)" fill="#FFFFFF" fill-rule="nonzero">
                                        <path d="M16.8125,7.416 C17.1582,7.416 17.4375,7.1367 17.4375,6.791 L17.4375,5.687475 C17.4375,5.53513 17.38086,5.3867 17.2802725,5.272425 L12.9677725,0.412925 C12.8486325,0.279135 12.6787225,0.202965 12.4999975,0.202965 L0.6874975,0.202965 C0.3417975,0.202965 0.0624975,0.482265 0.0624975,0.827965 L0.0624975,21.672715 C0.0624975,22.018415 0.3417975,22.297715 0.6874975,22.297715 L16.8124975,22.297715 C17.1581975,22.297715 17.4374975,22.018415 17.4374975,21.672715 L17.4374975,8.749965 C17.4374975,8.404265 17.1581975,8.124965 16.8124975,8.124965 C16.4667975,8.124965 16.1874975,8.404265 16.1874975,8.749965 L16.1874975,21.046965 L1.3124975,21.046965 L1.3124975,1.453215 L11.8652475,1.453215 L11.8652475,5.718715 C11.8652475,6.064415 12.1445475,6.343715 12.4902475,6.343715 L16.1874975,6.343715 L16.1874975,6.79099 C16.1874975,7.13669 16.4667975,7.41599 16.8124975,7.41599 L16.8125,7.416 Z M13.11525,5.093725 L13.11525,2.461975 L15.4502,5.093725 L13.11525,5.093725 Z M13.324235,10.228475 L4.176735,10.228475 C3.831035,10.228475 3.551735,10.507775 3.551735,10.853475 C3.551735,11.199175 3.831035,11.478475 4.176735,11.478475 L13.324235,11.478475 C13.669935,11.478475 13.949235,11.199175 13.949235,10.853475 C13.949235,10.50875 13.66896,10.228475 13.324235,10.228475 Z M13.324235,13.607475 L4.176735,13.607475 C3.831035,13.607475 3.551735,13.886775 3.551735,14.232475 C3.551735,14.578175 3.831035,14.857475 4.176735,14.857475 L13.324235,14.857475 C13.669935,14.857475 13.949235,14.578175 13.949235,14.232475 C13.949235,13.886775 13.66896,13.607475 13.324235,13.607475 Z M13.324235,16.984475 L4.176735,16.984475 C3.831035,16.984475 3.551735,17.263775 3.551735,17.609475 C3.551735,17.955175 3.831035,18.234475 4.176735,18.234475 L13.324235,18.234475 C13.669935,18.234475 13.949235,17.955175 13.949235,17.609475 C13.949235,17.26475 13.66896,16.984475 13.324235,16.984475 Z" id="Shape"></path>
                                    </g>
                                </g>
                            </g>
                        </g>
                    </g>
                </g>
            </g>
        </g>
    </g>
</svg>