<?xml version="1.0" encoding="UTF-8"?>
<svg width="14px" height="14px" viewBox="0 0 14 14" version="1.1" xmlns="http://www.w3.org/2000/svg" xmlns:xlink="http://www.w3.org/1999/xlink">
    <!-- Generator: Sketch 49.2 (51160) - http://www.bohemiancoding.com/sketch -->
    <title>1. Icons / _misc / arrow-right / light</title>
    <desc>Created with Sketch.</desc>
    <defs></defs>
    <g id="Symbols" stroke="none" stroke-width="1" fill="none" fill-rule="evenodd">
        <g id="2.-Elements-/-Button-/-Icon" transform="translate(-72.000000, -11.000000)">
            <g id="Group" transform="translate(21.000000, 9.000000)">
                <g id="1.-Icons-/-_misc-/-arrow-right-/-light" transform="translate(50.000000, 1.000000)">
                    <g id="np_arrow-right_942752_000000" fill-rule="evenodd" transform="translate(4.666667, 5.333333)" fill="#FFFFFF">
                        <path d="M4.06071749,5.22659062 L6.51137462,3.07305021 C6.60832739,2.9880084 6.66481479,2.86345505 6.66665779,2.73232113 C6.66744605,2.60091331 6.61568528,2.47362098 6.52030714,2.38528537 L4.06938095,0.114319983 C3.88992349,-0.0519290666 3.61430696,-0.0349192999 3.45481985,0.152727502 C3.29559507,0.340375709 3.31214848,0.627877286 3.4916046,0.794126335 L5.07335936,2.2599019 L0.513404397,2.2599019 C0.230166977,2.2599019 0,2.46373115 0,2.71448124 C0,2.96495041 0.230166977,3.16878669 0.513404397,3.16878669 L5.05048997,3.16878669 L3.50001246,4.53111309 C3.40174806,4.61780531 3.34525394,4.74427594 3.34525394,4.87897054 C3.34525394,4.98595931 3.38151269,5.08993519 3.44745994,5.17141633 C3.52234375,5.26441523 3.62744206,5.32120341 3.74304683,5.33162558 C3.85892066,5.34205055 3.97163313,5.30446613 4.06070941,5.2265541" id="Shape" fill-rule="nonzero"></path>
                    </g>
                    <circle id="Oval" stroke="#FFFFFF" cx="8" cy="8" r="6.16666667"></circle>
                </g>
            </g>
        </g>
    </g>
</svg>