<?xml version="1.0" encoding="UTF-8"?>
<svg width="24px" height="16px" viewBox="0 0 24 16" version="1.1" xmlns="http://www.w3.org/2000/svg" xmlns:xlink="http://www.w3.org/1999/xlink">
    <!-- Generator: Sketch 46.2 (44496) - http://www.bohemiancoding.com/sketch -->
    <title>mail</title>
    <desc>Created with Sketch.</desc>
    <defs></defs>
    <g id="Web" stroke="none" stroke-width="1" fill="none" fill-rule="evenodd">
        <g id="1-3-1-Dashboard-Filters-Open" transform="translate(-592.000000, -444.000000)" fill-rule="nonzero" fill="#002B32">
            <g id="mail" transform="translate(592.000000, 444.000000)">
                <g id="Group">
                    <path d="M0.545454545,0.0894527273 C0.244220795,0.0894828461 3.01188575e-05,0.333673522 0,0.634907273 L0,14.8167255 C3.01188575e-05,15.1179592 0.244220795,15.3621499 0.545454545,15.36218 L23.4545455,15.36218 C23.7557792,15.3621499 23.9999699,15.1179592 24,14.8167255 L24,0.634907273 C23.9999699,0.333673522 23.7557792,0.0894828461 23.4545455,0.0894527273 L0.545454545,0.0894527273 Z M1.96022727,1.18036182 L22.0397727,1.18036182 L12,9.46445273 L1.96022727,1.18036182 Z M1.09090909,1.88774818 L8.01988636,7.60649818 L1.09090909,13.58093 L1.09090909,1.88774818 Z M22.9090909,1.88774818 L22.9090909,13.58093 L17.2670455,8.67183909 C17.1573085,8.57434092 17.0129087,8.52518354 16.8664773,8.53547545 C16.6436659,8.54955294 16.4519211,8.69797757 16.382449,8.91014902 C16.3129769,9.12232047 16.3798014,9.35540937 16.5511364,9.49854364 L22.0397727,14.2712709 L1.96875,14.2712709 L8.88068182,8.31388455 L11.6505682,10.5979755 C11.8529402,10.766787 12.1470598,10.766787 12.3494318,10.5979755 L22.9090909,1.88774818 Z" id="Shape"></path>
                </g>
            </g>
        </g>
    </g>
</svg>