<?xml version="1.0" encoding="UTF-8"?>
<svg width="24px" height="24px" viewBox="0 0 24 24" version="1.1" xmlns="http://www.w3.org/2000/svg" xmlns:xlink="http://www.w3.org/1999/xlink">
    <!-- Generator: Sketch 46.2 (44496) - http://www.bohemiancoding.com/sketch -->
    <title>icons/light/messages</title>
    <desc>Created with Sketch.</desc>
    <defs></defs>
    <g id="Symbols" stroke="none" stroke-width="1" fill="none" fill-rule="evenodd">
        <g id="3.-Components-/-Navigation-/-Normal" transform="translate(-1063.000000, -22.000000)" fill="#859696">
            <g id="Main-Navigation" transform="translate(1051.000000, 16.000000)">
                <g id="Nav-Messages" transform="translate(0.000000, 6.000000)">
                    <g id="1.-Icons-/-messages-/-light" transform="translate(12.000000, 0.000000)">
                        <g id="np_message_1051368_000000">
                            <path d="M11.8481013,23.4903 C13.1546734,23.4903 14.4612456,23.280534 15.7370127,22.83054 L21.8439494,23.88054 L21.9958481,23.88054 C22.2687919,23.88054 22.5429266,23.761008 22.6948253,23.55006 C22.9072466,23.280528 22.9381003,22.95006 22.8158704,22.65006 L21.2055008,18.93066 C21.904478,18.03066 22.4515565,17.0709 22.8763868,16.05018 C23.4234653,14.70018 23.696397,13.25994 23.696397,11.79048 C23.696397,5.34048 18.3799413,0.09048 11.8482957,0.09048 C5.31665013,0.09048 0.00019443038,5.34048 0.00019443038,11.79048 C0.00019443038,18.24048 5.31665013,23.49048 11.8482957,23.49048 L11.8481013,23.4903 Z M11.8481013,1.8903 C17.3769114,1.8903 21.8734177,6.3306 21.8734177,11.7903 C21.8734177,13.05006 21.6301428,14.25006 21.1744405,15.3903 C20.7792608,16.40982 20.2025316,17.3403 19.4726886,18.18054 C19.2602673,18.450072 19.1997448,18.81102 19.3207899,19.11102 L20.4754633,21.81102 L15.7975899,21.03054 L15.6456911,21.03054 C15.5246461,21.03054 15.4332699,21.061008 15.3418937,21.090306 C14.2180861,21.509826 13.0325468,21.720786 11.8482228,21.720786 C6.31941266,21.720786 1.82290633,17.280486 1.82290633,11.820786 C1.82290633,6.359886 6.31941266,1.890186 11.8482228,1.890186 L11.8481013,1.8903 Z" id="Shape" fill-rule="nonzero"></path>
                        </g>
                    </g>
                </g>
            </g>
        </g>
    </g>
</svg>