<?xml version="1.0" encoding="UTF-8"?>
<svg width="19px" height="19px" viewBox="0 0 19 19" version="1.1" xmlns="http://www.w3.org/2000/svg" xmlns:xlink="http://www.w3.org/1999/xlink">
    <!-- Generator: Sketch 47.1 (45422) - http://www.bohemiancoding.com/sketch -->
    <title>icons/dark/messages</title>
    <desc>Created with Sketch.</desc>
    <defs></defs>
    <g id="Symbols" stroke="none" stroke-width="1" fill="none" fill-rule="evenodd">
        <g id="3.-Components-/-Patient-/-Normal" transform="translate(-423.000000, -111.000000)" fill="#002B32">
            <g id="Current-Phase" transform="translate(423.000000, 25.000000)">
                <g id="Phase-Messages" transform="translate(0.000000, 80.000000)">
                    <g id="1.-Icons-/-messages-/-dark" transform="translate(0.000000, 6.000000)">
                        <g id="np_message_1051368_000000">
                            <path d="M9.37974684,18.5964875 C10.4141165,18.5964875 11.4484861,18.4304228 12.4584684,18.0741775 L17.2931266,18.9054275 L17.4133797,18.9054275 C17.6294603,18.9054275 17.8464835,18.810798 17.9667367,18.6437975 C18.1349035,18.430418 18.1593294,18.1687975 18.0625641,17.9312975 L16.7876881,14.9867725 C17.3410451,14.2742725 17.7741489,13.5144625 18.1104729,12.7063925 C18.5435767,11.6376425 18.7596476,10.4974525 18.7596476,9.33413 C18.7596476,4.22788 14.5507868,0.07163 9.37990076,0.07163 C4.20901468,0.07163 0.000153924051,4.22788 0.000153924051,9.33413 C0.000153924051,14.44038 4.20901468,18.59663 9.37990076,18.59663 L9.37974684,18.5964875 Z M9.37974684,1.4964875 C13.7567215,1.4964875 17.3164557,5.011725 17.3164557,9.3339875 C17.3164557,10.3312975 17.123863,11.2812975 16.7630987,12.1839875 C16.4502481,12.9911075 15.9936709,13.7277375 15.4158785,14.3929275 C15.2477116,14.606307 15.199798,14.8920575 15.2956253,15.1295575 L16.2097418,17.2670575 L12.5064253,16.6491775 L12.3861722,16.6491775 C12.2903448,16.6491775 12.2180053,16.673298 12.1456658,16.6964922 C11.2559848,17.0286122 10.3174329,17.1956222 9.37984304,17.1956222 C5.00286835,17.1956222 1.44313418,13.6803847 1.44313418,9.35812225 C1.44313418,5.03490975 5.00286835,1.49639725 9.37984304,1.49639725 L9.37974684,1.4964875 Z" id="Shape" fill-rule="nonzero"></path>
                        </g>
                    </g>
                </g>
            </g>
        </g>
    </g>
</svg>