<?xml version="1.0" encoding="UTF-8"?>
<svg width="18px" height="12px" viewBox="0 0 18 12" version="1.1" xmlns="http://www.w3.org/2000/svg" xmlns:xlink="http://www.w3.org/1999/xlink">
    <!-- Generator: Sketch 57.1 (83088) - https://sketch.com -->
    <title>1. Icons / Phone</title>
    <desc>Created with Sketch.</desc>
    <defs>
        <path d="M20.4813991,6.00012301 L3.33900569,6.00012301 L3.27662497,6.0214296 L3.25310418,6.0214296 L3.19276809,6.05658649 L3.1661801,6.08108913 L3.119138,6.12157233 L3.09050277,6.15992555 L3.0588019,6.20360507 C3.0588019,6.21745429 3.04550739,6.23343566 3.03834884,6.2472846 L3.02300944,6.28244149 L3.0219866,6.28350675 C3.01380548,6.30694414 3.00664719,6.33038261 3.00153406,6.35488416 L3.00153406,6.38258204 L3.00153406,6.38151678 C2.99948865,6.40921466 2.99948865,6.43691255 3.00153406,6.4635468 L3.00153406,6.47952654 L3.00153406,6.49550655 L3.00153406,17.4843874 C3.00766977,17.7581753 3.21321958,17.9818911 3.47501807,18 L20.4917495,18 C20.7719496,18 21,17.7634962 21,17.470533 L21,6.51574269 C20.9928415,6.22490948 20.7607029,5.99372108 20.4815133,6.0001301 L20.4813991,6.00012301 Z M19.9762117,16.363647 L14.2004712,12.9215934 C13.9601505,12.7948203 13.6656222,12.8864365 13.5306403,13.1303966 C13.3956505,13.3743567 13.4682596,13.6854451 13.6952863,13.8377889 L18.9188993,16.9580278 L4.81255253,16.9580278 L10.0330239,13.8356071 C10.1567644,13.769556 10.249825,13.6534355 10.2897069,13.5149379 C10.3295889,13.3753794 10.3132277,13.2262319 10.2436885,13.1005333 C10.1741502,12.9748238 10.0585909,12.8842711 9.92256964,12.8491142 C9.78757984,12.8150237 9.64441153,12.8405916 9.52783383,12.9194253 L3.98299734,16.2379347 L3.98299734,7.45948446 L10.8970262,11.8795274 L11.8654615,12.4984753 L12.8338968,11.8763366 L19.9759499,7.31447694 L19.9762117,16.363647 Z M5.27061414,7.0419299 L18.4606754,7.0419299 L11.8657757,11.2552479 L5.27061414,7.0419299 Z" id="path-1"></path>
    </defs>
    <g id="Release-7" stroke="none" stroke-width="1" fill="none" fill-rule="evenodd">
        <g id="MFA-1-2-1" transform="translate(-25.000000, -381.000000)">
            <g id="Group" transform="translate(8.000000, 280.000000)">
                <g id="iOS-/-2.-Elements-/-Method-Copy" transform="translate(0.000000, 81.000000)">
                    <g id="1.-Icons-/-Message" transform="translate(14.000000, 14.000000)">
                        <mask id="mask-2" fill="white">
                            <use xlink:href="#path-1"></use>
                        </mask>
                        <use id="Mask" fill="#FFFFFF" fill-rule="nonzero" xlink:href="#path-1"></use>
                        <g id="0.-Identity-/-Colors-/-Blue---Dark" mask="url(#mask-2)" fill="#002B32" fill-rule="evenodd">
                            <rect id="Rectangle" x="0" y="0" width="24" height="24"></rect>
                        </g>
                    </g>
                </g>
            </g>
        </g>
    </g>
</svg>