<?xml version="1.0" encoding="UTF-8"?>
<svg width="11px" height="16px" viewBox="0 0 11 16" version="1.1" xmlns="http://www.w3.org/2000/svg" xmlns:xlink="http://www.w3.org/1999/xlink">
    <!-- Generator: Sketch 57.1 (83088) - https://sketch.com -->
    <title>1. Icons / Phone</title>
    <desc>Created with Sketch.</desc>
    <defs>
        <path d="M8.45962733,4 C7.66046312,4 7,4.62954435 7,5.39130435 L7,18.6086957 C7,19.3704522 7.66046312,20 8.45962733,20 L15.757764,20 C16.5569282,20 17.2173913,19.3704522 17.2173913,18.6086957 L17.2173913,5.39130435 C17.2173913,4.62954261 16.5569282,4 15.757764,4 L8.45962733,4 Z M8.45962733,5.04347826 L15.757764,5.04347826 C15.9693917,5.04347826 16.1226708,5.18958261 16.1226708,5.39130435 L16.1226708,5.73913043 L8.0947205,5.73913043 L8.0947205,5.39130435 C8.0947205,5.18958261 8.24799961,5.04347826 8.45962733,5.04347826 Z M8.0947205,6.7826087 L16.1226708,6.7826087 L16.1226708,16.173913 L8.0947205,16.173913 L8.0947205,6.7826087 Z M8.0947205,17.2173913 L16.1226708,17.2173913 L16.1226708,18.6086957 C16.1226708,18.8104174 15.9693917,18.9565217 15.757764,18.9565217 L8.45962733,18.9565217 C8.24799961,18.9565217 8.0947205,18.8104174 8.0947205,18.6086957 L8.0947205,17.2173913 Z M12.1086957,17.5652174 C11.8064068,17.5652174 11.5613354,17.7988 11.5613354,18.0869565 C11.5613354,18.3750957 11.8064068,18.6086957 12.1086957,18.6086957 C12.4110027,18.6086957 12.6560559,18.3750957 12.6560559,18.0869565 C12.6560559,17.7988 12.4110027,17.5652174 12.1086957,17.5652174 Z" id="path-1"></path>
    </defs>
    <g id="Release-7" stroke="none" stroke-width="1" fill="none" fill-rule="evenodd">
        <g id="MFA-1-2-1" transform="translate(-29.000000, -298.000000)">
            <g id="Group" transform="translate(8.000000, 280.000000)">
                <g id="iOS-/-2.-Elements-/-Method">
                    <g id="1.-Icons-/-Phone" transform="translate(14.000000, 14.000000)">
                        <mask id="mask-2" fill="white">
                            <use xlink:href="#path-1"></use>
                        </mask>
                        <use id="Shape" fill="#002B32" fill-rule="nonzero" xlink:href="#path-1"></use>
                        <g id="0.-Identity-/-Colors-/-Blue---Dark" mask="url(#mask-2)" fill="#002B32" fill-rule="evenodd">
                            <rect id="Rectangle" x="0" y="0" width="24" height="24"></rect>
                        </g>
                    </g>
                </g>
            </g>
        </g>
    </g>
</svg>