<?xml version="1.0" encoding="UTF-8"?>
<svg width="24px" height="24px" viewBox="0 0 24 24" version="1.1" xmlns="http://www.w3.org/2000/svg" xmlns:xlink="http://www.w3.org/1999/xlink">
    <!-- Generator: Sketch 46.2 (44496) - http://www.bohemiancoding.com/sketch -->
    <title>Icon</title>
    <desc>Created with Sketch.</desc>
    <defs>
        <path d="M8.5,5 L16.5,5 C16.7761424,5 17,5.22385763 17,5.5 C17,5.77614237 16.7761424,6 16.5,6 L8.5,6 C8.22385763,6 8,5.77614237 8,5.5 C8,5.22385763 8.22385763,5 8.5,5 Z" id="path-1"></path>
        <path d="M6.5,8 L16.5,8 C16.7761424,8 17,8.22385763 17,8.5 C17,8.77614237 16.7761424,9 16.5,9 L6.5,9 C6.22385763,9 6,8.77614237 6,8.5 C6,8.22385763 6.22385763,8 6.5,8 Z" id="path-2"></path>
        <path d="M6.5,11 L16.5,11 C16.7761424,11 17,11.2238576 17,11.5 C17,11.7761424 16.7761424,12 16.5,12 L6.5,12 C6.22385763,12 6,11.7761424 6,11.5 C6,11.2238576 6.22385763,11 6.5,11 Z" id="path-3"></path>
    </defs>
    <g id="Symbols" stroke="none" stroke-width="1" fill="none" fill-rule="evenodd">
        <g id="3.-Components-/-Navigation-/-Normal" transform="translate(-1198.000000, -22.000000)">
            <g id="Main-Navigation" transform="translate(1051.000000, 16.000000)">
                <g id="Nav-Notes" transform="translate(146.000000, 6.000000)">
                    <g id="Icon" transform="translate(1.000000, 0.000000)">
                        <path d="M1,0.75 C0.861928813,0.75 0.75,0.861928813 0.75,1 L0.75,23 C0.75,23.1380712 0.861928813,23.25 1,23.25 L16.5857864,23.25 C16.6520906,23.25 16.715679,23.2236608 16.7625631,23.1767767 L23.1767767,16.7625631 C23.2236608,16.715679 23.25,16.6520906 23.25,16.5857864 L23.25,1 C23.25,0.861928813 23.1380712,0.75 23,0.75 L1,0.75 Z" id="Path-2" stroke="#FFFFFF" stroke-width="1.5"></path>
                        <path d="M16,23.1252439 L16,17 L16,17 C16,16.4477153 16.4477153,16 17,16 L22.9979439,16" id="Path-3" stroke="#FFFFFF" stroke-width="1.5"></path>
                        <g id="Rectangle-3">
                            <use fill="#000000" fill-rule="evenodd" xlink:href="#path-1"></use>
                            <path stroke="#FFFFFF" stroke-width="1" d="M8.5,5.5 L16.5,5.5 L8.5,5.5 Z"></path>
                        </g>
                        <g id="Rectangle-3-Copy">
                            <use fill="#000000" fill-rule="evenodd" xlink:href="#path-2"></use>
                            <path stroke="#FFFFFF" stroke-width="1" d="M6.5,8.5 L16.5,8.5 L6.5,8.5 Z"></path>
                        </g>
                        <g id="Rectangle-3-Copy-2">
                            <use fill="#000000" fill-rule="evenodd" xlink:href="#path-3"></use>
                            <path stroke="#FFFFFF" stroke-width="1" d="M6.5,11.5 L16.5,11.5 L6.5,11.5 Z"></path>
                        </g>
                    </g>
                </g>
            </g>
        </g>
    </g>
</svg>
