<?xml version="1.0" encoding="UTF-8"?>
<svg width="35px" height="35px" viewBox="0 0 35 35" version="1.1" xmlns="http://www.w3.org/2000/svg" xmlns:xlink="http://www.w3.org/1999/xlink">
    <!-- Generator: Sketch 51.2 (57519) - http://www.bohemiancoding.com/sketch -->
    <title>Group 2</title>
    <desc>Created with Sketch.</desc>
    <defs></defs>
    <g id="iOS" stroke="none" stroke-width="1" fill="none" fill-rule="evenodd">
        <g id="6-1-1-Settings" transform="translate(-183.000000, -166.000000)">
            <g id="Main-Stack">
                <g id="Cells" transform="translate(0.000000, 156.000000)">
                    <g id="Text">
                        <g id="General-/-1.-Icons-/-Settings-/-Password" transform="translate(183.000000, 10.000000)">
                            <g id="Group-2">
                                <rect id="Rectangle-2" fill="#FF6907" x="0" y="0" width="35" height="35" rx="3.42857143"></rect>
                                <g id="Group" transform="translate(10.000000, 6.250000)" fill="#FFFFFF" fill-rule="nonzero">
                                    <path d="M13.125,8.70535714 L13.125,5.81223214 C13.125,2.67857143 10.6075714,0.133928571 7.5,0.133928571 C4.39242857,0.133928571 1.875,2.67857143 1.875,5.81223214 L1.875,8.70535714 C0.776357143,9.05378571 0,10.0718571 0,11.25 L0,19.8214286 C0,21.2946429 1.20535714,22.5 2.67857143,22.5 L12.3214286,22.5 C13.7946429,22.5 15,21.2946429 15,19.8214286 L15,11.25 C15,10.0446429 14.2236429,9.02657143 13.125,8.70535714 Z M7.5,1.74107143 C9.72342857,1.74107143 11.5178571,3.56271429 11.5178571,5.81223214 L11.5178571,8.57142857 L3.48214286,8.57142857 L3.48214286,5.81223214 C3.48214286,3.56266071 5.27657143,1.74107143 7.5,1.74107143 Z M13.3928571,19.8214286 C13.3928571,20.4105 12.9105,20.8928571 12.3214286,20.8928571 L2.67857143,20.8928571 C2.0895,20.8928571 1.60714286,20.4105 1.60714286,19.8214286 L1.60714286,11.25 C1.60714286,10.6609286 2.0895,10.1785714 2.67857143,10.1785714 L12.3214286,10.1785714 C12.9105,10.1785714 13.3928571,10.6609286 13.3928571,11.25 L13.3928571,19.8214286 Z" id="Shape"></path>
                                    <path d="M7.5,15.5357143 C7.04485714,15.5357143 6.69642857,15.8841429 6.69642857,16.3392857 L6.69642857,17.9464286 C6.69642857,18.4015714 7.04485714,18.75 7.5,18.75 C7.95514286,18.75 8.30357143,18.4015714 8.30357143,17.9464286 L8.30357143,16.3392857 C8.30357143,15.8841429 7.95514286,15.5357143 7.5,15.5357143 Z" id="Shape"></path>
                                </g>
                            </g>
                        </g>
                    </g>
                </g>
            </g>
        </g>
    </g>
</svg>