<?xml version="1.0" encoding="UTF-8"?>
<svg width="40px" height="40px" viewBox="0 0 40 40" version="1.1" xmlns="http://www.w3.org/2000/svg" xmlns:xlink="http://www.w3.org/1999/xlink">
    <!-- Generator: Sketch 46.2 (44496) - http://www.bohemiancoding.com/sketch -->
    <title>1. Icons / _misc / pending / filled</title>
    <desc>Created with Sketch.</desc>
    <defs></defs>
    <g id="Symbols" stroke="none" stroke-width="1" fill="none" fill-rule="evenodd">
        <g id="1.-Icons-/-_misc-/-pending-/-filled">
            <circle id="Background" fill="#FFB402" cx="20" cy="20" r="20"></circle>
            <g id="np_clock_1051361_000000" transform="translate(8.000000, 8.000000)" fill-rule="nonzero" fill="#FFFFFF">
                <path d="M12,23.8709189 C15.0481297,23.8709189 18.0645405,22.7028324 20.3993514,20.400973 C22.6379351,18.1623892 23.8705946,15.1787027 23.8705946,12.0003243 C23.8705946,8.82194595 22.6379027,5.83816216 20.4006486,3.60097297 C15.7624865,-1.03718919 8.23848649,-1.03718919 3.63340541,3.60097297 C-1.00475676,8.23913514 -1.00475676,15.7631351 3.63340541,20.3682162 C5.93536216,22.7030919 8.95167568,23.8712432 12,23.8712432 L12,23.8709189 Z M4.99394595,4.99427027 C8.85275676,1.13545946 15.1456216,1.13545946 19.0044324,4.99427027 C20.885773,6.87561081 21.9233514,9.37264865 21.9233514,12.0003243 C21.9233514,14.628 20.885773,17.124973 19.0044324,19.0063784 C15.1456216,22.8651892 8.85275676,22.8651892 4.99394595,19.0063784 C1.13513514,15.1462703 1.13513514,8.8547027 4.99394595,4.99459459 L4.99394595,4.99427027 Z" id="Shape"></path>
                <polygon id="Shape" points="17.1891892 12.3243243 12 12.3243243 12 5.83783784 10.0540541 5.83783784 10.0540541 14.2702703 17.1891892 14.2702703"></polygon>
            </g>
        </g>
    </g>
</svg>