<?xml version="1.0" encoding="UTF-8"?>
<svg width="16px" height="25px" viewBox="0 0 16 25" version="1.1" xmlns="http://www.w3.org/2000/svg" xmlns:xlink="http://www.w3.org/1999/xlink">
    <!-- Generator: Sketch 46.2 (44496) - http://www.bohemiancoding.com/sketch -->
    <title>phone</title>
    <desc>Created with Sketch.</desc>
    <defs></defs>
    <g id="Web" stroke="none" stroke-width="1" fill="none" fill-rule="evenodd">
        <g id="1-3-1-Dashboard-Filters-Open" transform="translate(-596.000000, -479.000000)" fill-rule="nonzero" fill="#002B32">
            <g id="phone" transform="translate(596.000000, 479.000000)">
                <path d="M12.5333333,0 L3.46666667,0 C1.55207953,0 0,1.50007687 0,3.35051546 L0,21.6494845 C0,23.4999231 1.55207953,25 3.46666667,25 L12.5333333,25 C14.4479205,25 16,23.4999231 16,21.6494845 L16,3.35051546 C16,2.46190351 15.634763,1.60968679 14.9846368,0.981343259 C14.3345107,0.352999723 13.4527505,1.71683973e-16 12.5333333,0 Z M14.4,4.63917526 L14.4,16.9304124 L1.6,16.9304124 L1.6,4.63917526 L14.4,4.63917526 Z M3.46666667,1.54639175 L12.5333333,1.54639175 C13.4604219,1.54744189 14.246226,2.20594673 14.3786667,3.09278351 L1.62133333,3.09278351 C1.75377401,2.20594673 2.53957809,1.54744189 3.46666667,1.54639175 L3.46666667,1.54639175 Z M12.5333333,23.4536082 L3.46666667,23.4536082 C2.43573513,23.4536082 1.6,22.6458745 1.6,21.6494845 L1.6,18.4768041 L14.4,18.4768041 L14.4,21.6494845 C14.4,22.6458745 13.5642649,23.4536082 12.5333333,23.4536082 Z" id="Shape"></path>
                <path d="M9.69863014,18 L7.30463144,18 C6.58410339,18 6,18.5841034 6,19.3046314 L6,21.6953686 C6,22.4158966 6.58410339,23 7.30463144,23 L9.69536856,23 C10.4158966,23 11,22.4158966 11,21.6953686 L11,19.3046314 C11.0000022,18.5853752 10.4178841,18.0017981 9.69863014,18 Z M9.04631442,21.0430528 L7.95694716,21.0430528 L7.95694716,19.9569472 L9.04305284,19.9569472 L9.04631442,21.0430528 Z" id="Shape"></path>
            </g>
        </g>
    </g>
</svg>