<?xml version="1.0" encoding="UTF-8"?>
<svg width="35px" height="35px" viewBox="0 0 35 35" version="1.1" xmlns="http://www.w3.org/2000/svg" xmlns:xlink="http://www.w3.org/1999/xlink">
    <!-- Generator: Sketch 51.2 (57519) - http://www.bohemiancoding.com/sketch -->
    <title>Icon</title>
    <desc>Created with Sketch.</desc>
    <defs></defs>
    <g id="iOS" stroke="none" stroke-width="1" fill="none" fill-rule="evenodd">
        <g id="6-1-1-Settings" transform="translate(-11.000000, -518.000000)">
            <g id="Main-Stack" transform="translate(-5.000000, 0.000000)">
                <g id="Cells" transform="translate(0.000000, 156.000000)">
                    <g id="Text" transform="translate(0.000000, 352.000000)">
                        <g id="UI-Views-/-Tables-/-Overrides-/-Label-/-Label" transform="translate(0.000000, 10.000000)">
                            <g id="Icon" transform="translate(16.000000, 0.000000)">
                                <rect id="Rectangle-2" fill="#FF6907" x="0" y="0" width="35" height="35" rx="3.42857143"></rect>
                                <g id="Group" transform="translate(7.291667, 7.291667)" fill="#FFFFFF" stroke="#FFFFFF">
                                    <path d="M10.2755012,0.22192029 C7.61245773,0.200024155 5.08227053,1.22056159 3.19594807,3.10688406 C1.28772947,4.97131039 0.243816425,7.47812198 0.22192029,10.1411655 C0.22192029,10.1411655 0.22192029,10.2083333 0.22192029,10.2083333 C0.22192029,15.6891727 4.68222222,20.1509541 10.1411655,20.1947464 C15.6453804,20.2385386 20.1509541,15.7782367 20.1947464,10.2083333 C20.1947464,4.72749396 15.7344444,0.26571256 10.2755012,0.22192029 Z M10.1645411,18.8413285 C5.41515097,18.8194324 1.57533816,14.9358273 1.57533816,10.2083333 L1.57533816,10.1411655 C1.5972343,7.83319444 2.50710749,5.68086353 4.14931763,4.03835749 C5.76992754,2.44112319 7.94533816,1.55344203 10.2521256,1.57533816 C14.9796196,1.5972343 18.8401449,5.48083937 18.8401449,10.2743176 C18.8194324,15.0234118 14.9124517,18.8851208 10.1645411,18.8413285 Z" id="Fill-1" stroke-width="0.2"></path>
                                    <path d="M7.9355314,4.90414251 C7.58045894,4.90414251 7.29166667,5.19323068 7.29166667,5.54800725 L7.29166667,14.8686594 C7.29166667,15.223436 7.58045894,15.5125242 7.9355314,15.5125242 C8.29030797,15.5125242 8.57910024,15.223436 8.57910024,14.8686594 L8.57910024,5.54800725 C8.57791667,5.19323068 8.29030797,4.90414251 7.9355314,4.90414251 Z" id="Fill-2" stroke-width="0.5"></path>
                                    <path d="M12.3102355,4.90414251 C11.9554589,4.90414251 11.6666667,5.19323068 11.6666667,5.54800725 L11.6666667,14.8686594 C11.6666667,15.223436 11.9554589,15.5125242 12.3102355,15.5125242 C12.665308,15.5125242 12.9541002,15.223436 12.9541002,14.8686594 L12.9541002,5.54800725 C12.9541002,5.19323068 12.6664915,4.90414251 12.3102355,4.90414251 Z" id="Fill-3" stroke-width="0.5"></path>
                                </g>
                            </g>
                        </g>
                    </g>
                </g>
            </g>
        </g>
    </g>
</svg>