<?xml version="1.0" encoding="UTF-8"?>
<svg width="18px" height="18px" viewBox="0 0 18 18" version="1.1" xmlns="http://www.w3.org/2000/svg" xmlns:xlink="http://www.w3.org/1999/xlink">
    <!-- Generator: Sketch 47.1 (45422) - http://www.bohemiancoding.com/sketch -->
    <title>Search Icon</title>
    <desc>Created with Sketch.</desc>
    <defs></defs>
    <g id="Symbols" stroke="none" stroke-width="1" fill="none" fill-rule="evenodd">
        <g id="1.-Icons-/-Search" transform="translate(-3.000000, -3.000000)" fill-rule="nonzero" fill="#CECECE">
            <g id="Search-Icon" transform="translate(3.000000, 3.000000)">
                <path d="M17.5578904,16.119863 L12.2160822,10.7770685 C13.0376712,9.69830137 13.5,8.31131507 13.5,6.82126027 C13.5,3.12263014 10.5208767,0.143506849 6.82224658,0.143506849 C3.12361644,0.143506849 0.143506849,3.12361644 0.143506849,6.82224658 C0.143506849,10.5208767 3.12263014,13.5 6.82126027,13.5 C8.31131507,13.5 9.64627397,13.0376712 10.7770685,12.2160822 L16.119863,17.5588767 C16.3250211,17.7640348 16.5821918,17.8670959 16.8393699,17.8670959 C17.0965479,17.8670959 17.3527397,17.7640348 17.5588767,17.5588767 C17.9692027,17.147589 17.9692027,16.5311507 17.5579133,16.1198877 L17.5578904,16.119863 Z M6.82224658,11.4455342 C4.25342466,11.4455342 2.1989589,9.39106849 2.1989589,6.82224658 C2.1989589,4.25342466 4.25342466,2.1989589 6.82224658,2.1989589 C9.39106849,2.1989589 11.4455342,4.25342466 11.4455342,6.82224658 C11.4455342,9.39008219 9.39010685,11.4455342 6.82224658,11.4455342 Z" id="Shape"></path>
            </g>
        </g>
    </g>
</svg>
