<?xml version="1.0" encoding="UTF-8"?>
<svg width="16px" height="16px" viewBox="0 0 16 16" version="1.1" xmlns="http://www.w3.org/2000/svg" xmlns:xlink="http://www.w3.org/1999/xlink">
    <!-- Generator: Sketch 47 (45396) - http://www.bohemiancoding.com/sketch -->
    <title>Shape</title>
    <desc>Created with Sketch.</desc>
    <defs></defs>
    <g id="Symbols" stroke="none" stroke-width="1" fill="none" fill-rule="evenodd">
        <g id="1.-Icons-/-Send" transform="translate(-9.000000, -8.000000)" fill-rule="nonzero" fill="#FFFFFF">
            <g id="np_send_1015734_000000" transform="translate(9.000000, 8.000000)">
                <path d="M1.7591402,9.17992403 L0.0367580327,14.8631185 C-0.0615704514,15.1977387 0.0413163775,15.5605866 0.298532783,15.7876976 C0.555756523,16.0154795 0.91912048,16.0645381 1.22387143,15.9126767 L15.5422151,8.7565201 C15.8222272,8.61608556 16,8.32245815 16,8.0006014 C16,7.6794155 15.8222272,7.38578637 15.5422151,7.24468269 L1.22387143,0.0873220256 C0.91912048,-0.0645342932 0.555756523,-0.0154842946 0.298532783,0.212301044 C0.0413090425,0.439412084 -0.0615804536,0.802259944 0.0367580327,1.13688019 L1.75713976,6.81336609 L8.28208753,7.46514708 C8.54581271,7.49202438 8.74639055,7.72048574 8.74639055,7.99395475 C8.74639055,8.26742376 8.54582938,8.49589371 8.28208753,8.52276241 L1.7591402,9.17992403 Z" id="Shape"></path>
            </g>
        </g>
    </g>
</svg>