<?xml version="1.0" encoding="UTF-8"?>
<svg width="309px" height="309px" viewBox="0 0 309 309" version="1.1" xmlns="http://www.w3.org/2000/svg" xmlns:xlink="http://www.w3.org/1999/xlink">
    <!-- Generator: Sketch 51.1 (57501) - http://www.bohemiancoding.com/sketch -->
    <title>turn-device-icon.ee22332</title>
    <desc>Created with Sketch.</desc>
    <defs></defs>
    <g id="Web" stroke="none" stroke-width="1" fill="none" fill-rule="evenodd">
        <g id="iPad-Copy-4" transform="translate(-230.000000, -333.000000)" fill-rule="nonzero">
            <g id="turn-device-icon.ee22332" transform="translate(230.000000, 333.000000)">
                <g id="Group" opacity="0.3" fill="#2C2F33">
                    <path d="M155.969745,309 L21.4562683,309 C9.62520167,309 0,299.386671 0,287.570152 L0,21.4298484 C0,9.61334979 9.62520167,0 21.4562683,0 L155.969745,0 C167.800812,0 177.426014,9.61334979 177.426014,21.4298484 L177.426014,287.570173 C177.426014,299.386671 167.800812,309 155.969745,309 Z M21.4562683,2.89979568 C11.2260998,2.89979568 2.90337071,11.2122766 2.90337071,21.4298484 L2.90337071,287.570173 C2.90337071,297.787406 11.2260998,306.100204 21.4562683,306.100204 L155.969745,306.100204 C166.199554,306.100204 174.522622,297.787406 174.522622,287.570173 L174.522622,21.4298484 C174.522622,11.2122766 166.199554,2.89979568 155.969745,2.89979568 L21.4562683,2.89979568 Z" id="Shape"></path>
                </g>
                <path d="M287.570132,309 L21.429847,309 C9.61334914,309 0,299.397929 0,287.595247 L0,153.405091 C0,141.60243 9.61334914,132 21.429847,132 L287.570153,132 C299.386672,132 309,141.60243 309,153.405091 L309,287.595247 C308.999979,299.397929 299.386651,309 287.570132,309 Z M21.429847,134.8964 C11.2122759,134.8964 2.89979549,143.199485 2.89979549,153.405091 L2.89979549,287.595247 C2.89979549,297.800515 11.2122759,306.103579 21.429847,306.103579 L287.570153,306.103579 C297.787385,306.103579 306.100183,297.800515 306.100183,287.595247 L306.100183,153.405091 C306.100183,143.199485 297.787385,134.8964 287.570153,134.8964 L21.429847,134.8964 Z" id="Shape" fill="#009DB9"></path>
                <path d="M243.541494,107 C242.973057,107 242.432431,106.666963 242.197361,106.112961 C234.03499,86.8943949 217.930371,72.2142101 198.012729,65.8361614 C197.245571,65.5907254 196.823897,64.7724995 197.07036,64.0085391 C197.317526,63.2452786 198.137387,62.8239405 198.905971,63.0704368 C219.632082,69.7073871 236.390593,84.9830733 244.884201,104.980847 C245.198316,105.719975 244.851428,106.572258 244.109185,106.884725 C243.923284,106.963123 243.730952,107 243.541494,107 Z" id="Shape" fill="#009DB9"></path>
            </g>
        </g>
    </g>
</svg>